<svg width="500" height="500" version="1.1" viewBox="0 0 132.29 132.29" xmlns="http://www.w3.org/2000/svg">
 <rect x="23.069" y="23.069" width="86.154" height="86.154" fill="#ceb09d" stroke="#ceb09d" stroke-linecap="round" stroke-linejoin="round" stroke-width="46.138"/>
 <g fill="none" stroke="#fff" stroke-linecap="round" stroke-linejoin="round" stroke-width="2.527">
  <path d="m69.187 115.5-2.5287 6.0669"/>
  <path d="m62.598 121.74h9.2248"/>
 </g>
 <g fill="none" stroke="#fff" stroke-linecap="round" stroke-linejoin="round" stroke-width="2.527">
  <path d="m58.994 110.53-7.344 11.132"/>
  <path d="m47.018 121.78h9.2248"/>
 </g>
 <g stroke="#fff" stroke-linecap="round" stroke-linejoin="round">
  <path transform="scale(.26458)" d="m129.33 232.16c-0.0954-0.20863-0.21443-0.41842-0.30859-0.62695-1.3724-3.0393-2.6129-6.0675-3.7051-9.0742-1.0922-3.0067-2.0358-5.991-2.8086-8.9453s-1.3767-5.8777-1.791-8.7598c-0.1313-0.91345-0.11435-1.7943-0.20703-2.6992-5.9613 46.359 5.2825 123.76 53.543 173.8 61.759 64.043 128.43 64.934 160.27 58.646 4.836-0.95486 7.9192-1.5244 11.549-2.2051l-12.377-12.918c-2.7344-0.83143-5.4825-1.6067-8.1875-2.5508-4.5014-1.5711-8.9611-3.2933-13.367-5.1465-4.4061-1.8532-8.7591-3.8375-13.053-5.9355-4.2936-2.098-8.5277-4.3098-12.691-6.6152s-8.2568-4.704-12.273-7.1797c-4.0166-2.4756-7.9565-5.0283-11.809-7.6367-3.8521-2.6085-7.6168-5.2726-11.287-7.9766-7.3407-5.4079-14.301-10.969-20.811-16.535-6.5096-5.5659-12.569-11.137-18.109-16.562-5.5401-5.4252-10.56-10.706-14.992-15.691s-9.1511-10.355-13.984-16.023c-4.8333-5.6683-9.7824-11.635-14.674-17.812-4.8915-6.177-9.7254-12.564-14.332-19.076-4.6066-6.512-8.9842-13.149-12.963-19.822-1.9893-3.3366-3.8804-6.683-5.6484-10.027-1.768-3.3444-3.4141-6.6872-4.918-10.018-0.39519-0.87519-0.69133-1.74-1.0664-2.6133z" fill="#fff" stroke-width="8.716"/>
  <path transform="scale(.26458)" d="m334.38 419.66 61.98 64.695 5.541-27.699 23.268 0.55469-37.631-53.221c-0.10934 0.61389-0.15204 1.2304-0.27149 1.8438-0.70195 3.6044-1.5789 7.1976-2.6445 10.773-1.0656 3.5758-2.3192 7.1343-3.7734 10.666-4.7091-0.0692-9.4106-0.36453-14.094-0.86523s-9.3484-1.2067-13.988-2.1016c-4.6398-0.89482-9.2528-1.9769-13.832-3.2285-1.5307-0.41838-3.032-0.96251-4.5547-1.418z" fill="none" stroke-width="9.5508"/>
  <path transform="scale(.26458)" d="m135.31 67.439c-4.066 0.13652-7.8248 0.4581-11.176 0.86524-3.3509 0.40713-6.2936 0.89846-8.7285 1.373-4.808 0.93714-7.5385 1.7847-7.6094 1.8066-0.63196 1.3589-6.8569 14.769-9.4941 19.516-2.77 4.9859-8.3092 18.835-7.2012 21.051 1.108 2.216 14.957 5.541 14.957 5.541l0.55468 19.943s10.526 9.9711 22.16 14.957c4.6987 2.0137 7.6265 6.2854 9.5117 10.664 0.63625-0.26635 1.2483-0.56454 1.9102-0.79687 2.5964-0.91142 5.382-1.5652 8.3066-2 2.9246-0.43486 5.987-0.65039 9.1348-0.6836 3.1478-0.0332 6.3806 0.11465 9.6465 0.4082 3.2659 0.29356 6.5647 0.73193 9.8438 1.2774 3.279 0.54542 6.5394 1.1975 9.7266 1.9199 4.7391 1.0741 9.1577 2.3824 13.596 3.6856 2e-3 -0.0461 4e-3 -0.0786 6e-3 -0.125 0.22798-5.9281 0.40369-12.355 0.4668-18.955 0.0631-6.6003 0.0132-13.374-0.20899-19.994-0.22216-6.6206-0.61627-13.087-1.2441-19.076-0.31392-2.9945-0.68706-5.8697-1.125-8.584-0.43794-2.7143-0.94058-5.2684-1.5176-7.6211-0.577-2.3527-1.2279-4.5045-1.959-6.4141-0.73111-1.9096-1.5431-3.5779-2.4434-4.9629-2.4584-1.4888-4.9404-2.8298-7.4336-4.0352-2.4932-1.2053-4.9972-2.2735-7.5-3.2207-2.5028-0.94719-5.0049-1.7719-7.4922-2.4863-2.4873-0.71446-4.9596-1.319-7.4062-1.8262-4.8933-1.0143-9.6816-1.6393-14.262-1.9766-4.5801-0.33728-8.9535-0.38649-13.02-0.25z" fill="#fff" stroke-width="9.5508"/>
 </g>
 <g opacity=".999">
  <path transform="scale(.26458)" d="m183.89 21.68c-2.439-0.10279-4.4216-0.06818-5.8066 0.07031-11.08 1.108-43.211 4.4314-53.184 16.619-9.9722 12.188-17.197 33.139-17.197 33.139 0 1e-6 45.39-14.095 84.725 9.7266 9.0168 13.871 9.1711 56.085 8.0254 85.732 1.5314 0.44966 3.1851 0.79463 4.6914 1.2715 5.8718 1.8588 11.574 3.9229 17.271 6.1934s11.391 4.7478 17.244 7.4277c5.8528 2.6799 11.867 5.5634 18.203 8.6504 1.8148 0.88417 3.7967 2.0349 5.7168 3.084 5.3272-18.708 8.6044-59.012 7.5781-68.248-1.108-9.9718-1.6615-40.441-17.174-69.803-13.573-25.691-53.021-33.144-70.094-33.863z" fill="none" stroke="#fff" stroke-linecap="round" stroke-linejoin="round" stroke-width="9.5508"/>
 </g>
 <g fill="none" stroke="#fff" stroke-linecap="round" stroke-linejoin="round">
  <path d="m92.014 71.326c7.481 10.064 14.91 26.771 8.7533 41.722-19.935-0.29316-39.284-15.83-48.665-26.384-9.3813-10.553-23.612-27.62-19.456-39.433 2.078-5.9064 10.047-5.5586 16.793-4.0296 6.7462 1.5291 12.081 3.9369 18.787 7.204 6.706 3.2671 16.307 10.856 23.788 20.921z" stroke-width="2.527"/>
  <g stroke-width="2.6458">
   <path d="m68.677 72.905c4.2763 5.0781 4.2763 5.0781 4.2763 5.0781"/>
   <path d="m80.495 84.932c4.2763 5.0781 4.2763 5.0781 4.2763 5.0781"/>
   <path d="m81.804 72.822c4.2763 5.0781 4.2763 5.0781 4.2763 5.0781"/>
   <path d="m68.005 84.77c4.2763 5.0781 4.2763 5.0781 4.2763 5.0781"/>
   <path d="m93.23 98.357c4.2763 5.0781 4.2763 5.0781 4.2763 5.0781"/>
   <path d="m92.161 85.763c4.2763 5.0781 4.2763 5.0781 4.2763 5.0781"/>
   <path d="m81.897 96.093c4.2763 5.0781 4.2763 5.0781 4.2763 5.0781"/>
   <path d="m55.021 72.306c4.2763 5.0781 4.2763 5.0781 4.2763 5.0781"/>
  </g>
 </g>
</svg>
